<svg xmlns="http://www.w3.org/2000/svg" width="232" height="250" fill="none"><path fill="#6F2C91" fill-rule="evenodd" d="M154.732 56.2c2.1-6.4 6.6-11.7 12.6-14.7 6-3.1 12.9-3.6 19.3-1.5 13.3 4.3 20.5 18.7 16.2 32-2.1 6.4-6.6 11.7-12.6 14.7s-12.9 3.6-19.3 1.5c-13.3-4.3-20.6-18.7-16.2-32Zm-20 .5-124.4-40.8c-1.7-.6-3.1-1.7-3.9-3.3-.8-1.6-1-3.4-.4-5.1.7-2.1 2.3-3.7 4.4-4.3 1.3-.4 2.7-.4 4 0l124.4 40.8c3.5 1.1 5.4 4.9 4.3 8.4-.6 1.7-1.7 3.1-3.3 3.9-.4.2-.7.3-1.1.4-1.4.5-2.7.4-4 0Zm-65.5-47c-.8-1.6-.9-3.4-.4-5.1.7-2.1 2.3-3.7 4.4-4.3 1.3-.4 2.7-.4 4 0l34.2 11.2c3.5 1.1 5.4 4.9 4.3 8.4-.5 1.7-1.7 3.1-3.3 3.9-.4.2-.7.3-1.1.4-1.3.4-2.7.4-4 0L73.232 13c-1.8-.5-3.2-1.7-4-3.3Zm32 48c.8 1.6.9 3.4.4 5.1-.6 1.7-1.8 3.1-3.3 3.9-.3.2-.7.3-1.1.4-1.3.4-2.7.4-4 0l-52.8-17.3c-1.7-.6-3.1-1.7-3.9-3.3-.8-1.6-.9-3.4-.4-5.1.7-2.1 2.3-3.7 4.4-4.3 1.3-.4 2.7-.4 4 0l52.8 17.3c1.7.6 3.1 1.8 3.9 3.3Zm127.9 21.5c-.1.3-.9 2.6-1 2.9-3.2 11-13.6 22.6-25.9 28.9-2.6 1.3-5.2 2.4-7.9 3.2l-.7.2c-12.3 3.5-31.3 3.5-52-16.5-3.2-3.1-5.7-6-8.1-8.9-5.7-6.7-10.2-12-22.2-16-3.5-1.1-5.4-4.9-4.3-8.4.7-2.1 2.3-3.7 4.4-4.3 1.3-.4 2.7-.4 4 .1 15.7 5.1 22.1 12.7 28.3 20.1 2.2 2.6 4.4 5.2 7.1 7.8 12.9 12.5 26.1 17 39.1 13.3l.5-.2c13.3-4 22.4-15.5 24.7-22.4.1-.3 1.6-4.7 1.7-5.2 2.4-8.2.8-22.5-7.1-32.6-8.3-10.7-21.5-14.8-39.3-12.4-3.7.5-7.099 1.3-10.399 2.1-9.3 2.2-19.001 4.6-34.701-.6-3.5-1.2-5.4-4.9-4.3-8.4.7-2.1 2.3-3.7 4.4-4.3 1.3-.4 2.7-.4 4 .1 12.1 3.9 18.8 2.3 27.4.2 3.6-.9 7.301-1.8 11.701-2.4 28.5-3.8 43.799 7.4 51.599 17.5 11.6 14.6 13.2 34.7 9 46.2Z" clip-rule="evenodd"/><path fill="#6F2C91" d="M108.231 160.101c12.6-9.5 19.6-23.5 19.6-40 0-25.6-16.3-40.8-49.4-40.8l-53.9.3c-2.4 0-4.4 1.8-4.7 4.2L.031 243.4c-.3 2.4 1.6 4.6 4.1 4.6h3.2c12.2.7 33 1.2 41.6 1.2 53.6 0 77.3-18.8 77.3-56-.1-15-5.7-25.6-18-33.1Zm-51.7 52.4c-2.1 0-5.2-.2-8.5-.4l1.9-19.2 1.6-11.5 15.8-.3c2.9-.1 5.8.3 8.5 1.4 7 2.7 7.7 6.8 7.7 10.9.1 15.8-14.6 19.1-27 19.1Zm20.7-70.2c-3.5 2.4-7.8 3.3-12.1 3.2l-8.4-.3 4.1-29.3h6c17.6 0 17.6 4.3 17.6 9.7.1 8-2.1 13.3-7.2 16.7Z"/>
<style>
    path { fill: #6F2C91; }
    @media (prefers-color-scheme: dark) {
        path { fill: #FFF; }
    }
</svg>