<svg width="2499" height="952" viewBox="0 0 2499 952" fill="none" xmlns="http://www.w3.org/2000/svg">
<g clip-path="url(#clip0_292_312)">
<path d="M0 662.093C0 686.826 20.6822 711.56 48.8852 711.56H236.989V901.834C236.989 926.568 257.671 951.301 285.874 951.301H446.702V499.423H0V662.093ZM596.249 -0.000646271C399.691 -0.000646271 242.659 157.907 242.659 352.896V428.071H440.121V352.896C440.121 268.255 508.784 199.769 596.244 199.769C682.757 199.769 742.965 260.627 742.965 350.993C742.965 440.438 678.062 506.071 591.507 506.071H517.228V705.787H591.507C784.353 705.787 940.481 546.976 940.481 350.964C940.481 147.442 794.712 -0.0065918 596.244 -0.0065918" fill="#4ACBD6"/>
<path d="M2499 711.561L2375.77 570.8L2485.82 444.262H2417.11L2318.41 562.221V323.502L2260.08 352.968V696.376C2260.08 704.913 2266.65 711.596 2274.19 711.596H2318.41V578.416L2427.49 711.596H2499V711.561ZM2077.63 436.622C2030.58 436.622 1981.67 461.403 1957.23 497.528V697.291C1957.23 704.878 1963.84 711.561 1971.34 711.561H2015.56V521.31C2029.63 503.259 2052.24 491.844 2077.63 491.844C2118.07 491.844 2147.2 524.164 2147.2 566.971V711.567H2204.58V565.063C2204.61 491.838 2150.03 436.622 2077.64 436.622M1868.85 317.759C1847.24 317.759 1829.34 334.906 1829.34 356.761C1829.34 367.225 1833.08 375.763 1839.67 382.446H1898C1904.57 375.763 1908.33 367.225 1908.33 356.761C1908.36 334.882 1890.48 317.759 1868.85 317.759ZM1898.03 711.555V444.256H1839.69V697.297C1839.69 704.878 1846.31 711.567 1853.81 711.567L1898.03 711.555ZM1722.13 697.285C1722.13 704.872 1728.74 711.555 1736.24 711.555H1780.45V323.496L1722.13 352.962V697.285ZM1591.4 606.937H1670.41V547.94H1563.17L1591.4 606.937ZM1385.44 439.517C1335.6 439.517 1282.93 466.153 1256.59 505.156V798.098C1256.59 805.732 1263.16 812.367 1270.71 812.367H1314.87V528.944C1328.99 507.986 1355.33 494.668 1384.49 494.668C1429.61 494.668 1462.55 528.938 1462.55 577.43C1462.55 625.018 1429.61 661.166 1384.49 661.166H1343.1V711.584H1385.44C1463.5 711.584 1520.86 655.459 1520.86 577.459C1520.83 498.479 1462.55 439.529 1385.44 439.529M1123.98 622.122V496.588H1199.21V444.268H1123.98V363.456L1065.65 392.922V634.566C1065.65 684.009 1094.81 711.62 1146.55 711.62H1221.78V661.202H1161.61C1133.36 661.178 1123.98 650.666 1123.98 622.134" fill="white"/>
</g>
<defs>
<clipPath id="clip0_292_312">
<rect width="2499" height="951.284" fill="white"/>
</clipPath>
</defs>
</svg>
