<svg width="229" height="87" fill="none" xmlns="http://www.w3.org/2000/svg"><g clip-path="url(#a)"><path d="M0 60.552c0 2.262 1.895 4.524 4.48 4.524h17.237v17.401c0 2.262 1.895 4.524 4.48 4.524h14.737V45.675H0v14.877ZM54.638 0C36.626 0 22.236 14.44 22.236 32.274v6.875h18.095v-6.875c0-7.74 6.292-14.004 14.307-14.004 7.928 0 13.445 5.566 13.445 13.83 0 8.18-5.948 14.183-13.88 14.183h-6.806v18.265h6.807c17.672 0 31.979-14.524 31.979-32.45 0-18.614-13.358-32.099-31.545-32.099" fill="#4ACBD6"/><path d="m229 65.076-11.293-12.873 10.085-11.573h-6.296l-9.045 10.788V29.586l-5.345 2.695v31.406c0 .781.602 1.392 1.293 1.392h4.052V52.9l9.995 12.18H229v-.003Zm-38.613-25.145c-4.312 0-8.794 2.267-11.033 5.57v18.27c0 .694.606 1.305 1.293 1.305h4.052v-17.4c1.289-1.65 3.361-2.694 5.688-2.694 3.705 0 6.375 2.956 6.375 6.87v13.225h5.258V51.678c.002-6.697-4.999-11.747-11.632-11.747m-19.133-10.87c-1.981 0-3.621 1.568-3.621 3.567 0 .957.343 1.738.947 2.349h5.345c.602-.611.947-1.392.947-2.35.002-2-1.636-3.566-3.618-3.566Zm2.673 36.015V40.63h-5.345v23.142c0 .693.606 1.305 1.293 1.305l4.052-.001ZM157.81 63.77c0 .693.606 1.305 1.293 1.305h4.052v-35.49l-5.345 2.694v31.49Zm-11.98-8.263h7.241v-5.396h-9.827l2.586 5.396Zm-18.873-15.312c-4.567 0-9.394 2.436-11.807 6.003V72.99c0 .699.602 1.305 1.293 1.305h4.047v-25.92c1.293-1.917 3.708-3.135 6.379-3.135 4.136 0 7.154 3.134 7.154 7.57 0 4.351-3.018 7.657-7.154 7.657h-3.792v4.611h3.88c7.153 0 12.409-5.133 12.409-12.266-.002-7.223-5.343-12.615-12.409-12.615m-23.96 16.7V45.415h6.894V40.63h-6.894v-7.39l-5.345 2.694v22.1c0 4.521 2.672 7.047 7.413 7.047h6.894V60.47h-5.513c-2.589-.003-3.448-.964-3.448-3.573" fill="#fff"/></g><defs><clipPath id="a"><path fill="#fff" d="M0 0h229v87H0z"/></clipPath></defs></svg>